<?xml version="1.0" encoding="UTF-8" standalone="no"?>
<svg
   xmlns:dc="http://purl.org/dc/elements/1.1/"
   xmlns:cc="http://creativecommons.org/ns#"
   xmlns:rdf="http://www.w3.org/1999/02/22-rdf-syntax-ns#"
   xmlns:svg="http://www.w3.org/2000/svg"
   xmlns="http://www.w3.org/2000/svg"
   height="30"
   width="30"
   id="svg4"
   version="1.1"
   viewBox="0 0 30 30"
   role="img"
   class="svg-inline--fa fa-user-circle fa-w-16"
   data-icon="user-circle"
   data-prefix="far"
   focusable="false"
   aria-hidden="true">
  <metadata
     id="metadata10">
    <rdf:RDF>
      <cc:Work
         rdf:about="">
        <dc:format>image/svg+xml</dc:format>
        <dc:type
           rdf:resource="http://purl.org/dc/dcmitype/StillImage" />
        <dc:title></dc:title>
      </cc:Work>
    </rdf:RDF>
  </metadata>
  <defs
     id="defs8" />
  <path
     style="fill:currentColor;stroke-width:0.06048387"
     id="path2"
     d="m 15,5.80645 c -3.205645,0 -5.8064515,2.60081 -5.8064515,5.80645 0,3.20565 2.6008065,5.80645 5.8064515,5.80645 3.205645,0 5.806452,-2.6008 5.806452,-5.80645 0,-3.20564 -2.600807,-5.80645 -5.806452,-5.80645 z m 0,8.70968 c -1.602822,0 -2.903226,-1.3004 -2.903226,-2.90323 0,-1.60282 1.300404,-2.90322 2.903226,-2.90322 1.602823,0 2.903226,1.3004 2.903226,2.90322 0,1.60283 -1.300403,2.90323 -2.903226,2.90323 z M 15,0 C 6.7137098,0 0,6.71371 0,15 0,23.28629 6.7137098,30 15,30 23.286291,30 30,23.28629 30,15 30,6.71371 23.286291,0 15,0 Z m 0,27.09678 c -3.006048,0 -5.752016,-1.10686 -7.8689515,-2.92743 0.9012097,-1.39112 2.4435485,-2.33467 4.2096775,-2.38911 1.258065,0.3871 2.455646,0.58065 3.659274,0.58065 1.20363,0 2.40121,-0.1875 3.659274,-0.58065 1.76613,0.0605 3.308468,0.99799 4.209678,2.38911 C 20.752016,25.98992 18.006048,27.09678 15,27.09678 Z m 9.840726,-5.0867 c -1.475806,-1.89919 -3.756048,-3.13911 -6.356854,-3.13911 -0.616936,0 -1.572581,0.58064 -3.483872,0.58064 -1.905242,0 -2.866935,-0.58064 -3.483871,-0.58064 -2.5947579,0 -4.8749999,1.23992 -6.3568548,3.13911 C 3.7439517,20.03226 2.9032258,17.6129 2.9032258,15 2.9032258,8.32863 8.3286292,2.90323 15,2.90323 c 6.671371,0 12.096775,5.4254 12.096775,12.09677 0,2.6129 -0.840726,5.03226 -2.256049,7.01008 z" />
</svg>
