<?xml version="1.0" encoding="UTF-8" standalone="no"?>
<!-- Created with Inkscape (http://www.inkscape.org/) -->
<svg id="svg5421" xmlns:rdf="http://www.w3.org/1999/02/22-rdf-syntax-ns#" xmlns="http://www.w3.org/2000/svg" height="152.7" viewBox="0 0 633.75831 152.70362" width="633.76" version="1.1" xmlns:cc="http://creativecommons.org/ns#" xmlns:dc="http://purl.org/dc/elements/1.1/">
 <metadata id="metadata5426">
  <rdf:RDF>
   <cc:Work rdf:about="">
    <dc:format>image/svg+xml</dc:format>
    <dc:type rdf:resource="http://purl.org/dc/dcmitype/StillImage"/>
    <dc:title/>
   </cc:Work>
  </rdf:RDF>
 </metadata>
 <g id="logo">
  <path id="logo-f" d="m0 150.34v-147.99h58.883v27.283h-29.638v31.404h26.694v28.264h-26.694v61.042h-29.245z"/>
  <path id="logo-c" d="m341.92 3.33v27.086q-6.4771-1.7665-11.188-1.7665-5.8883 0-12.365 2.3553-6.2809 2.159-12.562 8.4399-6.0846 6.2809-9.225 16.095-2.9442 9.8139-2.9442 19.824 0 9.8139 2.7479 18.843 2.9442 8.8325 7.8511 15.506 5.1032 6.6734 11.777 10.403 6.8697 3.533 14.328 3.533 4.5144 0 11.58-2.159v28.068q-6.4771 2.3553-13.936 2.3553-13.347 0-25.32-5.692-11.973-5.8883-21.002-16.291-8.8325-10.403-13.739-24.535-4.9069-14.132-4.9069-29.834 0-15.113 4.9069-28.853 4.9069-13.739 13.543-23.946 8.8325-10.403 20.609-16.095 11.777-5.8883 24.535-5.8883 7.8511 0 15.31 2.5516z"/>
  <path id="logo-a" d="m107.48 150.34 34.545-147.99h30.619l35.526 147.99h-31.208l-5.2995-24.731h-29.638l-5.2995 24.731h-29.245zm39.059-47.695h20.609l-4.9069-22.964q-3.9255-19.431-5.4958-39.255-1.5702 21.394-5.2995 39.255l-4.9069 22.964z"/>
  <path id="logo-e" d="m420.81 150.34v-147.99h58.883v27.479h-29.638v31.993h26.105v27.871h-26.105v33.171h29.834v27.479h-59.079z"/>
  <path id="logo-s" d="m625.71 7.85v28.46q-11.78-10.01-21.39-10.01-6.4771 0-10.795 3.9255-4.3181 3.9255-4.3181 10.795 0 3.3367 1.3739 6.8697 1.5702 3.533 4.7106 6.6734 3.1404 2.9442 11.384 9.8138l10.795 9.0288q16.291 13.543 16.291 33.956 0 8.2436-2.5516 16.291-2.3553 8.0474-7.4585 14.721-5.1032 6.4771-13.543 10.403-8.2436 3.9255-19.235 3.9255-14.525 0-25.516-7.4585v-28.46q12.758 8.4399 22.768 8.4399 5.1032 0 9.225-2.159 4.3181-2.159 5.8883-5.692 1.7665-3.533 1.7665-7.066 0-9.4213-11.58-18.45l-15.702-12.169q-9.0288-7.066-13.151-16.88-4.1218-10.01-4.1218-20.609 0-10.01 3.1404-17.861 3.3367-8.0474 8.8325-13.347 5.692-5.4958 12.758-8.2436 7.2622-2.7479 14.721-2.7479 5.8883 0 12.758 2.159 6.8697 1.9628 12.954 5.692z"/>
 </g>
</svg>
