<?xml version="1.0" encoding="UTF-8"?>
<!-- Generator: Adobe Illustrator 22.0.1, SVG Export Plug-In  -->
<svg width="30px" height="24px" enable-background="new 0 0 225.898 179.728" version="1.1" viewBox="0 0 225.9 179.73" xmlns="http://www.w3.org/2000/svg" xmlns:cc="http://creativecommons.org/ns#" xmlns:dc="http://purl.org/dc/elements/1.1/" xmlns:rdf="http://www.w3.org/1999/02/22-rdf-syntax-ns#">
 <metadata>
  <rdf:RDF>
   <cc:Work rdf:about="">
    <dc:format>image/svg+xml</dc:format>
    <dc:type rdf:resource="http://purl.org/dc/dcmitype/StillImage"/>
    <dc:title/>
   </cc:Work>
  </rdf:RDF>
 </metadata>
 <g fill="#fff">
  <path class="st0" d="m223.16 15.986c-1.694 1.694-4.035 2.742-6.622 2.742h-207.17c-5.546 2e-3 -9.969-4.823-9.296-10.503 0.566-4.776 4.886-8.225 9.695-8.225h206.77c5.171-2e-3 9.366 4.193 9.364 9.364 0 2.587-1.048 4.928-2.742 6.622z" fill="#fff"/>
  <path class="st0" d="m223.16 69.653c-1.694 1.694-4.035 2.742-6.622 2.742h-207.17c-5.546 2e-3 -9.969-4.823-9.296-10.503 0.566-4.775 4.886-8.225 9.695-8.225h206.77c5.171-2e-3 9.366 4.193 9.364 9.364 0 2.586-1.048 4.927-2.742 6.622z" fill="#fff"/>
  <path class="st0" d="m223.16 123.32c-1.694 1.694-4.035 2.742-6.622 2.742h-207.17c-5.546 2e-3 -9.969-4.823-9.296-10.503 0.566-4.775 4.886-8.225 9.695-8.225h206.77c5.171-2e-3 9.366 4.193 9.364 9.364 0 2.587-1.048 4.928-2.742 6.622z" fill="#fff"/>
  <path class="st0" d="m223.16 176.99c-1.694 1.694-4.035 2.742-6.622 2.742h-207.17c-5.546 2e-3 -9.969-4.823-9.296-10.503 0.566-4.776 4.886-8.225 9.695-8.225h206.77c5.171-2e-3 9.366 4.193 9.364 9.364 0 2.587-1.048 4.928-2.742 6.622z" fill="#fff"/>
 </g>
</svg>
