<!-- Generator: Adobe Illustrator 22.0.1, SVG Export Plug-In  -->
<svg version="1.1"
	 xmlns="http://www.w3.org/2000/svg" xmlns:xlink="http://www.w3.org/1999/xlink" xmlns:a="http://ns.adobe.com/AdobeSVGViewerExtensions/3.0/"
	 x="0px" y="0px" width="30px" height="24px" viewBox="0 0 225.898 179.728"
	 style="enable-background:new 0 0 225.898 179.728;" xml:space="preserve">
<style type="text/css">
	.st0{fill:#000000;}
</style>
<defs>
</defs>
<g>
	<path class="st0" d="M223.156,15.986c-1.694,1.694-4.035,2.742-6.622,2.742H9.364C3.818,18.73-0.605,13.905,0.068,8.225
		C0.634,3.449,4.954,0,9.763,0l206.771,0c5.171-0.002,9.366,4.193,9.364,9.364C225.898,11.951,224.85,14.292,223.156,15.986z"/>
</g>
<g>
	<path class="st0" d="M223.156,69.653c-1.694,1.694-4.035,2.742-6.622,2.742H9.364c-5.546,0.002-9.969-4.823-9.296-10.503
		c0.566-4.775,4.886-8.225,9.695-8.225l206.771,0c5.171-0.002,9.366,4.193,9.364,9.364C225.898,65.617,224.85,67.958,223.156,69.653
		z"/>
</g>
<g>
	<path class="st0" d="M223.156,123.319c-1.694,1.694-4.035,2.742-6.622,2.742H9.364c-5.546,0.002-9.969-4.823-9.296-10.503
		c0.566-4.775,4.886-8.225,9.695-8.225l206.771,0c5.171-0.002,9.366,4.193,9.364,9.364
		C225.898,119.284,224.85,121.625,223.156,123.319z"/>
</g>
<g>
	<path class="st0" d="M223.156,176.986c-1.694,1.694-4.035,2.742-6.622,2.742H9.364c-5.546,0.002-9.969-4.823-9.296-10.503
		C0.634,164.449,4.954,161,9.763,161l206.771,0c5.171-0.002,9.366,4.193,9.364,9.364
		C225.898,172.951,224.85,175.292,223.156,176.986z"/>
</g>
</svg>